<svg xmlns="http://www.w3.org/2000/svg" viewBox="0 0 512 512">
  <defs>
    <linearGradient id="grad1" x1="0%" y1="0%" x2="100%" y2="0%">
      <stop offset="0%" style="stop-color:#FF5722;stop-opacity:1" />
      <stop offset="100%" style="stop-color:#FF8A65;stop-opacity:1" />
    </linearGradient>
  </defs>
  <path fill="url(#grad1)" d="M432 400H156.4c-35.3 0-66.2-24.3-74.8-58.6L43.8 178c-5.7-22.7 11.4-45.2 34.8-45.2h355.7c21.8 0 40 16.4 42.6 38l21.3 176c3.2 26-17.2 49.2-46.2 49.2z"/>
  <circle cx="176" cy="448" r="32" fill="#37474F"/>
  <circle cx="400" cy="448" r="32" fill="#37474F"/>
  <path fill="#37474F" d="M128 132.8V64c0-17.7 14.3-32 32-32h32c17.7 0 32 14.3 32 32v68.8h-96z"/>
  <g fill="#FF5722" opacity="0.6">
    <path d="M48 208H16c-8.8 0-16-7.2-16-16s7.2-16 16-16h32c8.8 0 16 7.2 16 16s-7.2 16-16 16z"/>
    <path d="M80 272H32c-8.8 0-16-7.2-16-16s7.2-16 16-16h48c8.8 0 16 7.2 16 16s-7.2 16-16 16z"/>
    <path d="M64 336H16c-8.8 0-16-7.2-16-16s7.2-16 16-16h48c8.8 0 16 7.2 16 16s-7.2 16-16 16z"/>
  </g>
</svg>
